<?xml version="1.0" encoding="utf-8"?>
<!-- Generator: Adobe Illustrator 24.2.3, SVG Export Plug-In . SVG Version: 6.00 Build 0)  -->
<svg version="1.1" id="Layer_1" xmlns="http://www.w3.org/2000/svg" xmlns:xlink="http://www.w3.org/1999/xlink" x="0px" y="0px"
	 viewBox="0 0 207.6 23.8" style="enable-background:new 0 0 207.6 23.8;" xml:space="preserve">
<style type="text/css">
	.st0{fill:none;stroke:#BF0000;stroke-miterlimit:10;}
	.st1{fill:none;stroke:#BF0000;stroke-miterlimit:10;stroke-dasharray:11.9775,0.9981;}
</style>
<g>
	<g>
		<g>
			<path class="st0" d="M207.5,13.5c-2.9,0.8-3.5,2.2-4.8,3.4"/>
			<path class="st1" d="M201.9,17.5c-0.7,0.4-1.5,0.8-2.8,1.1c-7,1.7-20.9,10.2-20.9-2.2c-0.1-12.8-11-6.7-21.6-5.1
				c-8.9,1.4-17-6.7-26.1-6.4c-1.1,0-2.2,0.4-3.2,1c-1.8,1.1-5,3.1-7.3,4.4c-1.5,0.9-3.1,1.5-4.8,1.6c-4.3,0.4-11.3,2.2-16.5,3.5
				c-3.4,0.9-5.5,9.5-8.3,7.3l-1.2-5.4c-1-4.4-5.4-7.3-9.8-6.1c-0.3,0.1-0.5,0.2-0.8,0.3C73,13.8,57-2.4,49.5,1
				C47,2.1,46.7,12.2,38.4,12.7c-2.7,0.1-5.3-0.9-7.4-2.6l-7.4-6.3c-3.3-1.4-6.3,0.6-9.6,2.1c-2.3,1.1-4.8,1.4-7.3,1L6.5,6.8"/>
			<line class="st0" x1="6" y1="6.7" x2="0.1" y2="5.6"/>
		</g>
	</g>
</g>
</svg>
